<svg xmlns="http://www.w3.org/2000/svg" width="512" height="384" viewBox="0 0 512 384">
  <defs>
    <linearGradient id="bg" x1="0%" y1="0%" x2="100%" y2="100%">
      <stop offset="0%" style="stop-color:#121213;stop-opacity:1" />
      <stop offset="100%" style="stop-color:#0a0a15;stop-opacity:1" />
    </linearGradient>
  </defs>
  <rect width="512" height="384" fill="url(#bg)"/>
  <!-- Wordle tiles -->
  <!-- Row 1 -->
  <rect x="136" y="50" width="46" height="46" rx="4" fill="#538d4e"/>
  <rect x="190" y="50" width="46" height="46" rx="4" fill="#b59f3b"/>
  <rect x="244" y="50" width="46" height="46" rx="4" fill="#3a3a3c"/>
  <rect x="298" y="50" width="46" height="46" rx="4" fill="#538d4e"/>
  <rect x="352" y="50" width="46" height="46" rx="4" fill="#b59f3b"/>
  <!-- Row 2 -->
  <rect x="136" y="104" width="46" height="46" rx="4" fill="#3a3a3c"/>
  <rect x="190" y="104" width="46" height="46" rx="4" fill="#538d4e"/>
  <rect x="244" y="104" width="46" height="46" rx="4" fill="#538d4e"/>
  <rect x="298" y="104" width="46" height="46" rx="4" fill="#3a3a3c"/>
  <rect x="352" y="104" width="46" height="46" rx="4" fill="#b59f3b"/>
  <!-- Row 3 (empty outlines) -->
  <rect x="136" y="158" width="46" height="46" rx="4" fill="none" stroke="#3a3a3c" stroke-width="2"/>
  <rect x="190" y="158" width="46" height="46" rx="4" fill="none" stroke="#3a3a3c" stroke-width="2"/>
  <rect x="244" y="158" width="46" height="46" rx="4" fill="none" stroke="#3a3a3c" stroke-width="2"/>
  <rect x="298" y="158" width="46" height="46" rx="4" fill="none" stroke="#3a3a3c" stroke-width="2"/>
  <rect x="352" y="158" width="46" height="46" rx="4" fill="none" stroke="#3a3a3c" stroke-width="2"/>
  <!-- Letters -->
  <text x="159" y="84" font-family="system-ui,sans-serif" font-size="24" font-weight="bold" text-anchor="middle" fill="white">W</text>
  <text x="213" y="84" font-family="system-ui,sans-serif" font-size="24" font-weight="bold" text-anchor="middle" fill="white">O</text>
  <text x="267" y="84" font-family="system-ui,sans-serif" font-size="24" font-weight="bold" text-anchor="middle" fill="white">R</text>
  <text x="321" y="84" font-family="system-ui,sans-serif" font-size="24" font-weight="bold" text-anchor="middle" fill="white">D</text>
  <text x="375" y="84" font-family="system-ui,sans-serif" font-size="24" font-weight="bold" text-anchor="middle" fill="white">L</text>
  <!-- Title -->
  <text x="256" y="280" font-family="system-ui,sans-serif" font-size="36" font-weight="bold" text-anchor="middle" fill="white">Hello Wordl</text>
  <text x="256" y="320" font-family="system-ui,sans-serif" font-size="18" text-anchor="middle" fill="#538d4e" fill-opacity="0.9">Word Puzzle · Free · No Ads</text>
</svg>
