<svg xmlns="http://www.w3.org/2000/svg" width="512" height="384" viewBox="0 0 512 384">
  <defs>
    <linearGradient id="bg" x1="0%" y1="0%" x2="100%" y2="100%">
      <stop offset="0%" style="stop-color:#0f0f22;stop-opacity:1" />
      <stop offset="100%" style="stop-color:#0a0a15;stop-opacity:1" />
    </linearGradient>
  </defs>
  <rect width="512" height="384" fill="url(#bg)"/>
  <rect x="4" y="4" width="504" height="376" rx="8" fill="none" stroke="#818cf8" stroke-opacity="0.3" stroke-width="2"/>
  <!-- Stars -->
  <circle cx="80" cy="60" r="2" fill="white" fill-opacity="0.4"/>
  <circle cx="200" cy="40" r="1.5" fill="white" fill-opacity="0.3"/>
  <circle cx="350" cy="70" r="2" fill="white" fill-opacity="0.4"/>
  <circle cx="450" cy="50" r="1.5" fill="white" fill-opacity="0.3"/>
  <!-- Ground platform -->
  <rect x="40" y="260" width="430" height="20" rx="6" fill="#3730a3"/>
  <rect x="40" y="260" width="430" height="6" rx="6" fill="#4f46e5"/>
  <!-- Platform 2 -->
  <rect x="80" y="200" width="160" height="16" rx="5" fill="#3730a3"/>
  <rect x="80" y="200" width="160" height="5" rx="5" fill="#4f46e5"/>
  <!-- Platform 3 -->
  <rect x="290" y="170" width="140" height="16" rx="5" fill="#3730a3"/>
  <rect x="290" y="170" width="140" height="5" rx="5" fill="#4f46e5"/>
  <!-- Coins -->
  <circle cx="130" cy="182" r="8" fill="#fbbf24"/>
  <circle cx="160" cy="182" r="8" fill="#fbbf24"/>
  <circle cx="190" cy="182" r="8" fill="#fbbf24"/>
  <circle cx="330" cy="152" r="8" fill="#fbbf24"/>
  <circle cx="360" cy="152" r="8" fill="#fbbf24"/>
  <!-- Player character -->
  <rect x="100" y="172" width="24" height="28" rx="5" fill="#818cf8"/>
  <!-- Eyes -->
  <circle cx="108" cy="179" r="3" fill="white"/>
  <circle cx="116" cy="179" r="3" fill="white"/>
  <circle cx="109" cy="179" r="1.5" fill="#1a1a2e"/>
  <circle cx="117" cy="179" r="1.5" fill="#1a1a2e"/>
  <text x="256" y="318" font-family="system-ui,sans-serif" font-size="30" font-weight="900" text-anchor="middle" fill="white">Platformer</text>
  <text x="256" y="354" font-family="system-ui,sans-serif" font-size="16" text-anchor="middle" fill="#818cf8" fill-opacity="0.8">Free · No Ads · Play Instantly</text>
</svg>
