<svg xmlns="http://www.w3.org/2000/svg" width="512" height="384" viewBox="0 0 512 384">
  <defs>
    <linearGradient id="bg" x1="0%" y1="0%" x2="100%" y2="100%">
      <stop offset="0%" style="stop-color:#1a1a2e;stop-opacity:1" />
      <stop offset="100%" style="stop-color:#0a0a15;stop-opacity:1" />
    </linearGradient>
  </defs>
  <rect width="512" height="384" fill="url(#bg)"/>
  <rect x="4" y="4" width="504" height="376" rx="8" fill="none" stroke="#a78bfa" stroke-opacity="0.3" stroke-width="2"/>
  <!-- Simon circle -->
  <circle cx="256" cy="175" r="130" fill="#0d0d1a" stroke="#2d2d4e" stroke-width="3"/>
  <!-- Red quad (top-left) -->
  <path d="M256,175 L156,95 A130,130 0 0,1 256,45 Z" fill="#dc2626" fill-opacity="0.85"/>
  <!-- Green quad (top-right) -->
  <path d="M256,175 L356,95 A130,130 0 0,0 256,45 Z" fill="#16a34a" fill-opacity="0.85"/>
  <!-- Blue quad (bottom-left) -->
  <path d="M256,175 L156,255 A130,130 0 0,0 256,305 Z" fill="#1d4ed8" fill-opacity="0.85"/>
  <!-- Yellow quad (bottom-right) -->
  <path d="M256,175 L356,255 A130,130 0 0,1 256,305 Z" fill="#ca8a04" fill-opacity="0.85"/>
  <!-- Center -->
  <circle cx="256" cy="175" r="42" fill="#0a0a15" stroke="#2d2d4e" stroke-width="2"/>
  <text x="256" y="172" font-family="system-ui,sans-serif" font-size="11" font-weight="700" text-anchor="middle" fill="#6b7280">SIMON</text>
  <text x="256" y="186" font-family="system-ui,sans-serif" font-size="11" font-weight="700" text-anchor="middle" fill="#6b7280">SAYS</text>
  <text x="256" y="330" font-family="system-ui,sans-serif" font-size="28" font-weight="900" text-anchor="middle" fill="white">Simon Says</text>
  <text x="256" y="362" font-family="system-ui,sans-serif" font-size="16" text-anchor="middle" fill="#a78bfa" fill-opacity="0.8">Free · No Ads · Play Instantly</text>
</svg>
