<svg xmlns="http://www.w3.org/2000/svg" width="512" height="384" viewBox="0 0 512 384">
  <defs>
    <linearGradient id="bg" x1="0%" y1="0%" x2="100%" y2="100%">
      <stop offset="0%" style="stop-color:#0c1a2e;stop-opacity:1" />
      <stop offset="100%" style="stop-color:#0a0a15;stop-opacity:1" />
    </linearGradient>
  </defs>
  <rect width="512" height="384" fill="url(#bg)"/>
  <rect x="4" y="4" width="504" height="376" rx="8" fill="none" stroke="#22d3ee" stroke-opacity="0.3" stroke-width="2"/>
  <!-- Tetromino blocks -->
  <!-- I piece (cyan) -->
  <rect x="140" y="80" width="36" height="36" rx="4" fill="#22d3ee" fill-opacity="0.9"/>
  <rect x="180" y="80" width="36" height="36" rx="4" fill="#22d3ee" fill-opacity="0.9"/>
  <rect x="220" y="80" width="36" height="36" rx="4" fill="#22d3ee" fill-opacity="0.9"/>
  <rect x="260" y="80" width="36" height="36" rx="4" fill="#22d3ee" fill-opacity="0.9"/>
  <!-- T piece (purple) -->
  <rect x="160" y="130" width="36" height="36" rx="4" fill="#a78bfa" fill-opacity="0.9"/>
  <rect x="200" y="130" width="36" height="36" rx="4" fill="#a78bfa" fill-opacity="0.9"/>
  <rect x="240" y="130" width="36" height="36" rx="4" fill="#a78bfa" fill-opacity="0.9"/>
  <rect x="200" y="90" width="36" height="36" rx="4" fill="#a78bfa" fill-opacity="0.9"/>
  <!-- S piece (green) -->
  <rect x="220" y="170" width="36" height="36" rx="4" fill="#4ade80" fill-opacity="0.9"/>
  <rect x="260" y="170" width="36" height="36" rx="4" fill="#4ade80" fill-opacity="0.9"/>
  <rect x="180" y="210" width="36" height="36" rx="4" fill="#4ade80" fill-opacity="0.9"/>
  <rect x="220" y="210" width="36" height="36" rx="4" fill="#4ade80" fill-opacity="0.9"/>
  <!-- L piece (orange) -->
  <rect x="140" y="170" width="36" height="36" rx="4" fill="#f97316" fill-opacity="0.9"/>
  <rect x="140" y="210" width="36" height="36" rx="4" fill="#f97316" fill-opacity="0.9"/>
  <rect x="140" y="250" width="36" height="36" rx="4" fill="#f97316" fill-opacity="0.9"/>
  <rect x="180" y="250" width="36" height="36" rx="4" fill="#f97316" fill-opacity="0.9"/>
  <text x="256" y="310" font-family="system-ui,sans-serif" font-size="32" font-weight="900" text-anchor="middle" fill="white">TETRIS</text>
  <text x="256" y="345" font-family="system-ui,sans-serif" font-size="16" text-anchor="middle" fill="#22d3ee" fill-opacity="0.8">Free · No Ads · Play Instantly</text>
</svg>
